<svg width="350" height="80" viewBox="0 0 350 80" fill="none" xmlns="http://www.w3.org/2000/svg">
<rect width="350" height="80" fill="white"/>
<path d="M118.135 39.5C118.135 41.81 117.73 43.775 116.92 45.395C116.11 47.015 115.015 48.245 113.635 49.085C112.255 49.925 110.71 50.375 109 50.435V48.995C111.19 48.875 113.005 47.99 114.445 46.34C115.915 44.69 116.65 42.365 116.65 39.365V12.23H118.135V39.5ZM128.59 12.23H130.12V44H128.59V12.23ZM139.418 12.23L151.523 43.055L150.713 42.965L162.638 12.23H164.348L150.983 45.44L137.663 12.23H139.418ZM171.92 12.23H173.45V44H171.92V12.23ZM185.448 27.035L185.358 28.565V28.295L201.918 12.23H203.898L190.758 25.055L205.608 44H203.673L189.588 26.045L185.403 30.05L185.448 44H183.873V12.23H185.448V27.035ZM210.398 44L223.718 10.835H223.853L237.128 44H235.418L223.313 13.31L224.348 12.815L211.928 44H210.398ZM216.383 31.355H231.188L231.548 32.795H216.068L216.383 31.355Z" fill="#0E096C"/>
<path d="M139.793 58.024C139.88 57.894 140.023 57.7727 140.222 57.66C140.421 57.5473 140.616 57.4867 140.807 57.478C140.833 57.7207 140.902 57.9677 141.015 58.219C141.128 58.4617 141.288 58.6827 141.496 58.882C141.713 59.0727 141.977 59.233 142.289 59.363C142.601 59.4843 142.974 59.545 143.407 59.545C144.04 59.545 144.542 59.3847 144.915 59.064C145.288 58.7347 145.474 58.3057 145.474 57.777C145.474 57.2743 145.344 56.8583 145.084 56.529C144.824 56.1997 144.352 55.9483 143.667 55.775L142.445 55.463C142.133 55.385 141.838 55.294 141.561 55.19C141.284 55.086 141.041 54.9517 140.833 54.787C140.625 54.6137 140.46 54.4057 140.339 54.163C140.226 53.9117 140.17 53.6083 140.17 53.253C140.17 52.8977 140.257 52.5553 140.43 52.226C140.603 51.8967 140.842 51.6063 141.145 51.355C141.457 51.095 141.817 50.887 142.224 50.731C142.64 50.575 143.086 50.497 143.563 50.497C144.04 50.497 144.447 50.5577 144.785 50.679C145.123 50.8003 145.396 50.9477 145.604 51.121C145.812 51.2943 145.964 51.485 146.059 51.693C146.163 51.8923 146.224 52.07 146.241 52.226C146.18 52.3473 146.068 52.46 145.903 52.564C145.738 52.6593 145.548 52.72 145.331 52.746C145.296 52.5553 145.231 52.369 145.136 52.187C145.041 51.9963 144.902 51.8273 144.72 51.68C144.547 51.524 144.33 51.3983 144.07 51.303C143.81 51.2077 143.502 51.16 143.147 51.16C142.558 51.16 142.085 51.316 141.73 51.628C141.375 51.9313 141.197 52.3343 141.197 52.837C141.197 53.123 141.24 53.3613 141.327 53.552C141.414 53.734 141.535 53.89 141.691 54.02C141.847 54.1413 142.029 54.241 142.237 54.319C142.454 54.397 142.688 54.4663 142.939 54.527L144.083 54.813C144.56 54.9343 144.954 55.0817 145.266 55.255C145.587 55.4283 145.838 55.619 146.02 55.827C146.202 56.035 146.328 56.2647 146.397 56.516C146.475 56.7587 146.514 57.01 146.514 57.27C146.514 57.66 146.432 58.0327 146.267 58.388C146.102 58.7433 145.864 59.0597 145.552 59.337C145.24 59.6057 144.863 59.8223 144.421 59.987C143.988 60.143 143.498 60.221 142.952 60.221C142.423 60.221 141.964 60.1517 141.574 60.013C141.184 59.8743 140.859 59.701 140.599 59.493C140.339 59.2763 140.14 59.038 140.001 58.778C139.871 58.518 139.802 58.2667 139.793 58.024ZM149.852 51.173C149.774 51.3117 149.652 51.459 149.488 51.615C149.323 51.7623 149.176 51.8663 149.046 51.927C148.916 51.8663 148.768 51.7623 148.604 51.615C148.439 51.459 148.313 51.3117 148.227 51.173C148.313 51.0257 148.439 50.874 148.604 50.718C148.768 50.562 148.916 50.4493 149.046 50.38C149.176 50.4493 149.323 50.562 149.488 50.718C149.661 50.874 149.782 51.0257 149.852 51.173ZM148.5 53.435C148.647 53.357 148.807 53.3007 148.981 53.266C149.163 53.2313 149.345 53.214 149.527 53.214V59.896C149.405 59.9653 149.245 60.013 149.046 60.039C148.855 60.0737 148.673 60.091 148.5 60.091V53.435ZM156.775 55.944C156.775 55.2073 156.623 54.67 156.32 54.332C156.017 53.9853 155.588 53.812 155.033 53.812C154.834 53.812 154.634 53.851 154.435 53.929C154.244 53.9983 154.058 54.0937 153.876 54.215C153.703 54.3363 153.538 54.4793 153.382 54.644C153.226 54.8 153.087 54.9647 152.966 55.138V59.896C152.845 59.9653 152.684 60.013 152.485 60.039C152.294 60.0737 152.112 60.091 151.939 60.091V53.435C152.225 53.2877 152.546 53.214 152.901 53.214V54.501C153.014 54.3537 153.157 54.1977 153.33 54.033C153.512 53.8597 153.711 53.7037 153.928 53.565C154.153 53.4263 154.396 53.3137 154.656 53.227C154.925 53.1317 155.211 53.084 155.514 53.084C156.216 53.084 156.771 53.2963 157.178 53.721C157.594 54.1457 157.802 54.7523 157.802 55.541V59.896C157.681 59.9653 157.52 60.013 157.321 60.039C157.13 60.0737 156.948 60.091 156.775 60.091V55.944ZM165.444 54.618C165.392 54.7133 165.288 54.813 165.132 54.917C164.984 55.021 164.798 55.086 164.573 55.112C164.547 54.9647 164.495 54.8087 164.417 54.644C164.347 54.4707 164.243 54.3147 164.105 54.176C163.966 54.0287 163.793 53.9117 163.585 53.825C163.377 53.7297 163.125 53.682 162.831 53.682C162.588 53.682 162.341 53.7297 162.09 53.825C161.847 53.9203 161.626 54.0763 161.427 54.293C161.227 54.5097 161.063 54.787 160.933 55.125C160.811 55.463 160.751 55.8747 160.751 56.36C160.751 56.88 160.82 57.335 160.959 57.725C161.097 58.1063 161.284 58.427 161.518 58.687C161.752 58.9383 162.02 59.129 162.324 59.259C162.636 59.3803 162.961 59.441 163.299 59.441C163.741 59.441 164.113 59.376 164.417 59.246C164.729 59.1073 164.993 58.9123 165.21 58.661C165.262 58.6697 165.314 58.7 165.366 58.752C165.418 58.804 165.452 58.8517 165.47 58.895C165.4 59.0163 165.292 59.155 165.145 59.311C165.006 59.4583 164.828 59.597 164.612 59.727C164.395 59.857 164.144 59.9653 163.858 60.052C163.572 60.1473 163.247 60.195 162.883 60.195C162.449 60.195 162.038 60.1213 161.648 59.974C161.266 59.8267 160.928 59.6057 160.634 59.311C160.348 59.0163 160.118 58.6567 159.945 58.232C159.78 57.8073 159.698 57.3133 159.698 56.75C159.698 56.256 159.789 55.7923 159.971 55.359C160.153 54.917 160.4 54.5313 160.712 54.202C161.032 53.864 161.409 53.5997 161.843 53.409C162.276 53.2097 162.744 53.11 163.247 53.11C163.663 53.11 164.009 53.1707 164.287 53.292C164.564 53.4047 164.785 53.5433 164.95 53.708C165.123 53.864 165.249 54.0287 165.327 54.202C165.405 54.3753 165.444 54.514 165.444 54.618ZM167.707 56.646C167.733 57.114 167.816 57.5257 167.954 57.881C168.102 58.2277 168.288 58.518 168.513 58.752C168.739 58.986 168.999 59.1637 169.293 59.285C169.597 59.3977 169.917 59.454 170.255 59.454C170.68 59.454 171.044 59.3977 171.347 59.285C171.659 59.1723 171.941 58.9947 172.192 58.752C172.314 58.778 172.396 58.8603 172.439 58.999C172.379 59.0943 172.279 59.2113 172.14 59.35C172.01 59.4887 171.833 59.623 171.607 59.753C171.391 59.883 171.126 59.9913 170.814 60.078C170.511 60.1733 170.156 60.221 169.748 60.221C169.315 60.221 168.912 60.143 168.539 59.987C168.167 59.831 167.842 59.6057 167.564 59.311C167.287 59.0163 167.066 58.6523 166.901 58.219C166.745 57.7857 166.667 57.296 166.667 56.75C166.667 56.2473 166.754 55.775 166.927 55.333C167.101 54.8823 167.335 54.4923 167.629 54.163C167.933 53.8337 168.284 53.5737 168.682 53.383C169.09 53.1837 169.523 53.084 169.982 53.084C170.476 53.084 170.884 53.1663 171.204 53.331C171.525 53.4957 171.776 53.708 171.958 53.968C172.149 54.228 172.279 54.514 172.348 54.826C172.426 55.138 172.465 55.4413 172.465 55.736C172.396 55.84 172.301 55.931 172.179 56.009C172.067 56.087 171.941 56.1477 171.802 56.191L167.707 56.646ZM169.644 53.669C169.376 53.669 169.124 53.7167 168.89 53.812C168.656 53.9073 168.453 54.0547 168.279 54.254C168.106 54.4533 167.963 54.709 167.85 55.021C167.746 55.333 167.69 55.71 167.681 56.152L171.347 55.775C171.356 55.7317 171.36 55.6883 171.36 55.645C171.36 55.6017 171.36 55.5627 171.36 55.528C171.36 55.2593 171.326 55.0123 171.256 54.787C171.187 54.5617 171.079 54.3667 170.931 54.202C170.793 54.0373 170.615 53.9073 170.398 53.812C170.19 53.7167 169.939 53.669 169.644 53.669ZM177.527 60.091C177.483 60.065 177.436 60.013 177.384 59.935C177.332 59.857 177.297 59.779 177.28 59.701L179.516 57.621C179.975 57.1963 180.378 56.8107 180.725 56.464C181.08 56.1173 181.375 55.788 181.609 55.476C181.843 55.1553 182.02 54.8347 182.142 54.514C182.263 54.1933 182.324 53.838 182.324 53.448C182.324 53.136 182.28 52.85 182.194 52.59C182.116 52.3213 181.994 52.0917 181.83 51.901C181.674 51.7017 181.47 51.5457 181.219 51.433C180.976 51.3203 180.69 51.264 180.361 51.264C180.135 51.264 179.919 51.2987 179.711 51.368C179.503 51.4287 179.312 51.524 179.139 51.654C178.974 51.784 178.84 51.9487 178.736 52.148C178.64 52.3387 178.593 52.5683 178.593 52.837C178.593 53.0277 178.627 53.1837 178.697 53.305C178.775 53.4263 178.853 53.5303 178.931 53.617C178.853 53.7383 178.714 53.8467 178.515 53.942C178.324 54.0287 178.138 54.072 177.956 54.072C177.86 54.02 177.769 53.9203 177.683 53.773C177.596 53.617 177.553 53.409 177.553 53.149C177.553 52.837 177.631 52.5337 177.787 52.239C177.951 51.9357 178.172 51.6713 178.45 51.446C178.736 51.2207 179.074 51.0387 179.464 50.9C179.854 50.7613 180.278 50.692 180.738 50.692C181.206 50.692 181.613 50.757 181.96 50.887C182.306 51.017 182.588 51.1947 182.805 51.42C183.03 51.6367 183.195 51.8923 183.299 52.187C183.411 52.473 183.468 52.772 183.468 53.084C183.468 53.5 183.407 53.8857 183.286 54.241C183.164 54.5963 182.965 54.9647 182.688 55.346C182.41 55.7187 182.046 56.126 181.596 56.568C181.154 57.01 180.608 57.517 179.958 58.089L178.593 59.298H183.728C183.71 59.5233 183.641 59.714 183.52 59.87C183.398 60.0173 183.264 60.091 183.117 60.091H177.527ZM185.295 55.762C185.295 54.9907 185.39 54.293 185.581 53.669C185.771 53.045 186.031 52.512 186.361 52.07C186.699 51.628 187.093 51.29 187.544 51.056C188.003 50.8133 188.497 50.692 189.026 50.692C189.598 50.692 190.083 50.8133 190.482 51.056C190.889 51.29 191.218 51.6063 191.47 52.005C191.73 52.4037 191.916 52.8673 192.029 53.396C192.15 53.9247 192.211 54.4793 192.211 55.06C192.211 55.6753 192.146 56.2907 192.016 56.906C191.894 57.5213 191.691 58.076 191.405 58.57C191.119 59.0553 190.742 59.454 190.274 59.766C189.806 60.0693 189.229 60.221 188.545 60.221C188.094 60.221 187.669 60.13 187.271 59.948C186.881 59.7573 186.538 59.4757 186.244 59.103C185.949 58.7303 185.715 58.2667 185.542 57.712C185.377 57.1487 185.295 56.4987 185.295 55.762ZM186.4 55.203C186.4 55.9223 186.46 56.5593 186.582 57.114C186.712 57.66 186.889 58.1193 187.115 58.492C187.34 58.8647 187.604 59.1463 187.908 59.337C188.22 59.5277 188.558 59.623 188.922 59.623C189.632 59.623 190.174 59.2937 190.547 58.635C190.919 57.9763 191.106 56.971 191.106 55.619C191.106 55.0383 191.058 54.4837 190.963 53.955C190.867 53.4263 190.72 52.967 190.521 52.577C190.321 52.1783 190.066 51.862 189.754 51.628C189.45 51.394 189.086 51.277 188.662 51.277C188.41 51.277 188.15 51.342 187.882 51.472C187.613 51.5933 187.366 51.8057 187.141 52.109C186.924 52.4123 186.746 52.8153 186.608 53.318C186.469 53.8207 186.4 54.449 186.4 55.203ZM193.916 60.091C193.873 60.065 193.825 60.013 193.773 59.935C193.721 59.857 193.686 59.779 193.669 59.701L195.905 57.621C196.364 57.1963 196.767 56.8107 197.114 56.464C197.469 56.1173 197.764 55.788 197.998 55.476C198.232 55.1553 198.41 54.8347 198.531 54.514C198.652 54.1933 198.713 53.838 198.713 53.448C198.713 53.136 198.67 52.85 198.583 52.59C198.505 52.3213 198.384 52.0917 198.219 51.901C198.063 51.7017 197.859 51.5457 197.608 51.433C197.365 51.3203 197.079 51.264 196.75 51.264C196.525 51.264 196.308 51.2987 196.1 51.368C195.892 51.4287 195.701 51.524 195.528 51.654C195.363 51.784 195.229 51.9487 195.125 52.148C195.03 52.3387 194.982 52.5683 194.982 52.837C194.982 53.0277 195.017 53.1837 195.086 53.305C195.164 53.4263 195.242 53.5303 195.32 53.617C195.242 53.7383 195.103 53.8467 194.904 53.942C194.713 54.0287 194.527 54.072 194.345 54.072C194.25 54.02 194.159 53.9203 194.072 53.773C193.985 53.617 193.942 53.409 193.942 53.149C193.942 52.837 194.02 52.5337 194.176 52.239C194.341 51.9357 194.562 51.6713 194.839 51.446C195.125 51.2207 195.463 51.0387 195.853 50.9C196.243 50.7613 196.668 50.692 197.127 50.692C197.595 50.692 198.002 50.757 198.349 50.887C198.696 51.017 198.977 51.1947 199.194 51.42C199.419 51.6367 199.584 51.8923 199.688 52.187C199.801 52.473 199.857 52.772 199.857 53.084C199.857 53.5 199.796 53.8857 199.675 54.241C199.554 54.5963 199.354 54.9647 199.077 55.346C198.8 55.7187 198.436 56.126 197.985 56.568C197.543 57.01 196.997 57.517 196.347 58.089L194.982 59.298H200.117C200.1 59.5233 200.03 59.714 199.909 59.87C199.788 60.0173 199.653 60.091 199.506 60.091H193.916ZM204.844 59.623C205.148 59.623 205.429 59.571 205.689 59.467C205.949 59.363 206.17 59.2113 206.352 59.012C206.543 58.8127 206.69 58.5657 206.794 58.271C206.898 57.9763 206.95 57.634 206.95 57.244C206.95 56.906 206.907 56.5897 206.82 56.295C206.734 56.0003 206.595 55.7447 206.404 55.528C206.214 55.3113 205.967 55.1423 205.663 55.021C205.36 54.891 204.996 54.826 204.571 54.826C204.32 54.826 204.082 54.852 203.856 54.904C203.64 54.9473 203.436 55.008 203.245 55.086C203.063 55.164 202.899 55.2507 202.751 55.346C202.604 55.4413 202.474 55.5323 202.361 55.619C202.301 55.593 202.24 55.5497 202.179 55.489C202.127 55.4197 202.093 55.3633 202.075 55.32L202.595 51.277C202.743 51.147 202.938 51.0387 203.18 50.952C203.432 50.8653 203.748 50.822 204.129 50.822H207.73C207.713 51.0473 207.644 51.238 207.522 51.394C207.41 51.55 207.254 51.628 207.054 51.628H203.297L202.946 54.514C203.224 54.3667 203.536 54.2453 203.882 54.15C204.238 54.046 204.623 53.994 205.039 53.994C205.559 53.994 206.006 54.072 206.378 54.228C206.76 54.384 207.067 54.592 207.301 54.852C207.544 55.112 207.722 55.4153 207.834 55.762C207.947 56.1 208.003 56.4553 208.003 56.828C208.003 57.2613 207.925 57.6817 207.769 58.089C207.622 58.4963 207.397 58.8603 207.093 59.181C206.799 59.493 206.426 59.7443 205.975 59.935C205.525 60.1257 205.005 60.221 204.415 60.221C203.982 60.221 203.592 60.1647 203.245 60.052C202.907 59.948 202.617 59.8007 202.374 59.61C202.132 59.4107 201.945 59.181 201.815 58.921C201.685 58.661 201.62 58.375 201.62 58.063C201.62 57.9243 201.638 57.816 201.672 57.738C201.768 57.6427 201.906 57.5603 202.088 57.491C202.279 57.4217 202.457 57.3827 202.621 57.374C202.613 57.4173 202.608 57.4563 202.608 57.491C202.608 57.5257 202.608 57.5603 202.608 57.595C202.608 57.881 202.656 58.1497 202.751 58.401C202.855 58.6437 202.998 58.856 203.18 59.038C203.371 59.22 203.605 59.363 203.882 59.467C204.16 59.571 204.48 59.623 204.844 59.623Z" fill="#0E096C"/>
</svg>
