<svg width="147" height="72" viewBox="0 0 147 72" fill="none" xmlns="http://www.w3.org/2000/svg">
<path d="M19.135 39.5C19.135 41.81 18.73 43.775 17.92 45.395C17.11 47.015 16.015 48.245 14.635 49.085C13.255 49.925 11.71 50.375 10 50.435V48.995C12.19 48.875 14.005 47.99 15.445 46.34C16.915 44.69 17.65 42.365 17.65 39.365V12.23H19.135V39.5ZM29.5901 12.23H31.1201V44H29.5901V12.23ZM40.4182 12.23L52.5232 43.055L51.7132 42.965L63.6382 12.23H65.3482L51.9832 45.44L38.6632 12.23H40.4182ZM72.9202 12.23H74.4502V44H72.9202V12.23ZM86.4483 27.035L86.3583 28.565V28.295L102.918 12.23H104.898L91.7583 25.055L106.608 44H104.673L90.5883 26.045L86.4033 30.05L86.4483 44H84.8733V12.23H86.4483V27.035ZM111.398 44L124.718 10.835H124.853L138.128 44H136.418L124.313 13.31L125.348 12.815L112.928 44H111.398ZM117.383 31.355H132.188L132.548 32.795H117.068L117.383 31.355Z" fill="#06032D"/>
<path d="M40.793 58.024C40.8797 57.894 41.0227 57.7727 41.222 57.66C41.4213 57.5473 41.6163 57.4867 41.807 57.478C41.833 57.7207 41.9023 57.9677 42.015 58.219C42.1277 58.4617 42.288 58.6827 42.496 58.882C42.7127 59.0727 42.977 59.233 43.289 59.363C43.601 59.4843 43.9737 59.545 44.407 59.545C45.0397 59.545 45.5423 59.3847 45.915 59.064C46.2877 58.7347 46.474 58.3057 46.474 57.777C46.474 57.2743 46.344 56.8583 46.084 56.529C45.824 56.1997 45.3517 55.9483 44.667 55.775L43.445 55.463C43.133 55.385 42.8383 55.294 42.561 55.19C42.2837 55.086 42.041 54.9517 41.833 54.787C41.625 54.6137 41.4603 54.4057 41.339 54.163C41.2263 53.9117 41.17 53.6083 41.17 53.253C41.17 52.8977 41.2567 52.5553 41.43 52.226C41.6033 51.8967 41.8417 51.6063 42.145 51.355C42.457 51.095 42.8167 50.887 43.224 50.731C43.64 50.575 44.0863 50.497 44.563 50.497C45.0397 50.497 45.447 50.5577 45.785 50.679C46.123 50.8003 46.396 50.9477 46.604 51.121C46.812 51.2943 46.9637 51.485 47.059 51.693C47.163 51.8923 47.2237 52.07 47.241 52.226C47.1803 52.3473 47.0677 52.46 46.903 52.564C46.7383 52.6593 46.5477 52.72 46.331 52.746C46.2963 52.5553 46.2313 52.369 46.136 52.187C46.0407 51.9963 45.902 51.8273 45.72 51.68C45.5467 51.524 45.33 51.3983 45.07 51.303C44.81 51.2077 44.5023 51.16 44.147 51.16C43.5577 51.16 43.0853 51.316 42.73 51.628C42.3747 51.9313 42.197 52.3343 42.197 52.837C42.197 53.123 42.2403 53.3613 42.327 53.552C42.4137 53.734 42.535 53.89 42.691 54.02C42.847 54.1413 43.029 54.241 43.237 54.319C43.4537 54.397 43.6877 54.4663 43.939 54.527L45.083 54.813C45.5597 54.9343 45.954 55.0817 46.266 55.255C46.5867 55.4283 46.838 55.619 47.02 55.827C47.202 56.035 47.3277 56.2647 47.397 56.516C47.475 56.7587 47.514 57.01 47.514 57.27C47.514 57.66 47.4317 58.0327 47.267 58.388C47.1023 58.7433 46.864 59.0597 46.552 59.337C46.24 59.6057 45.863 59.8223 45.421 59.987C44.9877 60.143 44.498 60.221 43.952 60.221C43.4233 60.221 42.964 60.1517 42.574 60.013C42.184 59.8743 41.859 59.701 41.599 59.493C41.339 59.2763 41.1397 59.038 41.001 58.778C40.871 58.518 40.8017 58.2667 40.793 58.024ZM50.8516 51.173C50.7736 51.3117 50.6523 51.459 50.4876 51.615C50.323 51.7623 50.1756 51.8663 50.0456 51.927C49.9156 51.8663 49.7683 51.7623 49.6036 51.615C49.439 51.459 49.3133 51.3117 49.2266 51.173C49.3133 51.0257 49.439 50.874 49.6036 50.718C49.7683 50.562 49.9156 50.4493 50.0456 50.38C50.1756 50.4493 50.323 50.562 50.4876 50.718C50.661 50.874 50.7823 51.0257 50.8516 51.173ZM49.4996 53.435C49.647 53.357 49.8073 53.3007 49.9806 53.266C50.1626 53.2313 50.3446 53.214 50.5266 53.214V59.896C50.4053 59.9653 50.245 60.013 50.0456 60.039C49.855 60.0737 49.673 60.091 49.4996 60.091V53.435ZM57.7752 55.944C57.7752 55.2073 57.6235 54.67 57.3202 54.332C57.0168 53.9853 56.5878 53.812 56.0332 53.812C55.8338 53.812 55.6345 53.851 55.4352 53.929C55.2445 53.9983 55.0582 54.0937 54.8762 54.215C54.7028 54.3363 54.5382 54.4793 54.3822 54.644C54.2262 54.8 54.0875 54.9647 53.9662 55.138V59.896C53.8448 59.9653 53.6845 60.013 53.4852 60.039C53.2945 60.0737 53.1125 60.091 52.9392 60.091V53.435C53.2252 53.2877 53.5458 53.214 53.9012 53.214V54.501C54.0138 54.3537 54.1568 54.1977 54.3302 54.033C54.5122 53.8597 54.7115 53.7037 54.9282 53.565C55.1535 53.4263 55.3962 53.3137 55.6562 53.227C55.9248 53.1317 56.2108 53.084 56.5142 53.084C57.2162 53.084 57.7708 53.2963 58.1782 53.721C58.5942 54.1457 58.8022 54.7523 58.8022 55.541V59.896C58.6808 59.9653 58.5205 60.013 58.3212 60.039C58.1305 60.0737 57.9485 60.091 57.7752 60.091V55.944ZM66.4437 54.618C66.3917 54.7133 66.2877 54.813 66.1317 54.917C65.9844 55.021 65.7981 55.086 65.5727 55.112C65.5467 54.9647 65.4947 54.8087 65.4167 54.644C65.3474 54.4707 65.2434 54.3147 65.1047 54.176C64.9661 54.0287 64.7927 53.9117 64.5847 53.825C64.3767 53.7297 64.1254 53.682 63.8307 53.682C63.5881 53.682 63.3411 53.7297 63.0897 53.825C62.8471 53.9203 62.6261 54.0763 62.4267 54.293C62.2274 54.5097 62.0627 54.787 61.9327 55.125C61.8114 55.463 61.7507 55.8747 61.7507 56.36C61.7507 56.88 61.8201 57.335 61.9587 57.725C62.0974 58.1063 62.2837 58.427 62.5177 58.687C62.7517 58.9383 63.0204 59.129 63.3237 59.259C63.6357 59.3803 63.9607 59.441 64.2987 59.441C64.7407 59.441 65.1134 59.376 65.4167 59.246C65.7287 59.1073 65.9931 58.9123 66.2097 58.661C66.2617 58.6697 66.3137 58.7 66.3657 58.752C66.4177 58.804 66.4524 58.8517 66.4697 58.895C66.4004 59.0163 66.2921 59.155 66.1447 59.311C66.0061 59.4583 65.8284 59.597 65.6117 59.727C65.3951 59.857 65.1437 59.9653 64.8577 60.052C64.5717 60.1473 64.2467 60.195 63.8827 60.195C63.4494 60.195 63.0377 60.1213 62.6477 59.974C62.2664 59.8267 61.9284 59.6057 61.6337 59.311C61.3477 59.0163 61.1181 58.6567 60.9447 58.232C60.7801 57.8073 60.6977 57.3133 60.6977 56.75C60.6977 56.256 60.7887 55.7923 60.9707 55.359C61.1527 54.917 61.3997 54.5313 61.7117 54.202C62.0324 53.864 62.4094 53.5997 62.8427 53.409C63.2761 53.2097 63.7441 53.11 64.2467 53.11C64.6627 53.11 65.0094 53.1707 65.2867 53.292C65.5641 53.4047 65.7851 53.5433 65.9497 53.708C66.1231 53.864 66.2487 54.0287 66.3267 54.202C66.4047 54.3753 66.4437 54.514 66.4437 54.618ZM68.7075 56.646C68.7335 57.114 68.8158 57.5257 68.9545 57.881C69.1018 58.2277 69.2881 58.518 69.5135 58.752C69.7388 58.986 69.9988 59.1637 70.2935 59.285C70.5968 59.3977 70.9175 59.454 71.2555 59.454C71.6801 59.454 72.0441 59.3977 72.3475 59.285C72.6595 59.1723 72.9411 58.9947 73.1925 58.752C73.3138 58.778 73.3961 58.8603 73.4395 58.999C73.3788 59.0943 73.2791 59.2113 73.1405 59.35C73.0105 59.4887 72.8328 59.623 72.6075 59.753C72.3908 59.883 72.1265 59.9913 71.8145 60.078C71.5111 60.1733 71.1558 60.221 70.7485 60.221C70.3151 60.221 69.9121 60.143 69.5395 59.987C69.1668 59.831 68.8418 59.6057 68.5645 59.311C68.2871 59.0163 68.0661 58.6523 67.9015 58.219C67.7455 57.7857 67.6675 57.296 67.6675 56.75C67.6675 56.2473 67.7541 55.775 67.9275 55.333C68.1008 54.8823 68.3348 54.4923 68.6295 54.163C68.9328 53.8337 69.2838 53.5737 69.6825 53.383C70.0898 53.1837 70.5231 53.084 70.9825 53.084C71.4765 53.084 71.8838 53.1663 72.2045 53.331C72.5251 53.4957 72.7765 53.708 72.9585 53.968C73.1491 54.228 73.2791 54.514 73.3485 54.826C73.4265 55.138 73.4655 55.4413 73.4655 55.736C73.3961 55.84 73.3008 55.931 73.1795 56.009C73.0668 56.087 72.9411 56.1477 72.8025 56.191L68.7075 56.646ZM70.6445 53.669C70.3758 53.669 70.1245 53.7167 69.8905 53.812C69.6565 53.9073 69.4528 54.0547 69.2795 54.254C69.1061 54.4533 68.9631 54.709 68.8505 55.021C68.7465 55.333 68.6901 55.71 68.6815 56.152L72.3475 55.775C72.3561 55.7317 72.3605 55.6883 72.3605 55.645C72.3605 55.6017 72.3605 55.5627 72.3605 55.528C72.3605 55.2593 72.3258 55.0123 72.2565 54.787C72.1871 54.5617 72.0788 54.3667 71.9315 54.202C71.7928 54.0373 71.6151 53.9073 71.3985 53.812C71.1905 53.7167 70.9391 53.669 70.6445 53.669ZM78.5265 60.091C78.4832 60.065 78.4355 60.013 78.3835 59.935C78.3315 59.857 78.2968 59.779 78.2795 59.701L80.5155 57.621C80.9748 57.1963 81.3778 56.8107 81.7245 56.464C82.0798 56.1173 82.3745 55.788 82.6085 55.476C82.8425 55.1553 83.0202 54.8347 83.1415 54.514C83.2628 54.1933 83.3235 53.838 83.3235 53.448C83.3235 53.136 83.2802 52.85 83.1935 52.59C83.1155 52.3213 82.9942 52.0917 82.8295 51.901C82.6735 51.7017 82.4698 51.5457 82.2185 51.433C81.9758 51.3203 81.6898 51.264 81.3605 51.264C81.1352 51.264 80.9185 51.2987 80.7105 51.368C80.5025 51.4287 80.3118 51.524 80.1385 51.654C79.9738 51.784 79.8395 51.9487 79.7355 52.148C79.6402 52.3387 79.5925 52.5683 79.5925 52.837C79.5925 53.0277 79.6272 53.1837 79.6965 53.305C79.7745 53.4263 79.8525 53.5303 79.9305 53.617C79.8525 53.7383 79.7138 53.8467 79.5145 53.942C79.3238 54.0287 79.1375 54.072 78.9555 54.072C78.8602 54.02 78.7692 53.9203 78.6825 53.773C78.5958 53.617 78.5525 53.409 78.5525 53.149C78.5525 52.837 78.6305 52.5337 78.7865 52.239C78.9512 51.9357 79.1722 51.6713 79.4495 51.446C79.7355 51.2207 80.0735 51.0387 80.4635 50.9C80.8535 50.7613 81.2782 50.692 81.7375 50.692C82.2055 50.692 82.6128 50.757 82.9595 50.887C83.3062 51.017 83.5878 51.1947 83.8045 51.42C84.0298 51.6367 84.1945 51.8923 84.2985 52.187C84.4112 52.473 84.4675 52.772 84.4675 53.084C84.4675 53.5 84.4068 53.8857 84.2855 54.241C84.1642 54.5963 83.9648 54.9647 83.6875 55.346C83.4102 55.7187 83.0462 56.126 82.5955 56.568C82.1535 57.01 81.6075 57.517 80.9575 58.089L79.5925 59.298H84.7275C84.7102 59.5233 84.6408 59.714 84.5195 59.87C84.3982 60.0173 84.2638 60.091 84.1165 60.091H78.5265ZM86.2945 55.762C86.2945 54.9907 86.3899 54.293 86.5805 53.669C86.7712 53.045 87.0312 52.512 87.3605 52.07C87.6985 51.628 88.0929 51.29 88.5435 51.056C89.0029 50.8133 89.4969 50.692 90.0255 50.692C90.5975 50.692 91.0829 50.8133 91.4815 51.056C91.8889 51.29 92.2182 51.6063 92.4695 52.005C92.7295 52.4037 92.9159 52.8673 93.0285 53.396C93.1499 53.9247 93.2105 54.4793 93.2105 55.06C93.2105 55.6753 93.1455 56.2907 93.0155 56.906C92.8942 57.5213 92.6905 58.076 92.4045 58.57C92.1185 59.0553 91.7415 59.454 91.2735 59.766C90.8055 60.0693 90.2292 60.221 89.5445 60.221C89.0939 60.221 88.6692 60.13 88.2705 59.948C87.8805 59.7573 87.5382 59.4757 87.2435 59.103C86.9489 58.7303 86.7149 58.2667 86.5415 57.712C86.3769 57.1487 86.2945 56.4987 86.2945 55.762ZM87.3995 55.203C87.3995 55.9223 87.4602 56.5593 87.5815 57.114C87.7115 57.66 87.8892 58.1193 88.1145 58.492C88.3399 58.8647 88.6042 59.1463 88.9075 59.337C89.2195 59.5277 89.5575 59.623 89.9215 59.623C90.6322 59.623 91.1739 59.2937 91.5465 58.635C91.9192 57.9763 92.1055 56.971 92.1055 55.619C92.1055 55.0383 92.0579 54.4837 91.9625 53.955C91.8672 53.4263 91.7199 52.967 91.5205 52.577C91.3212 52.1783 91.0655 51.862 90.7535 51.628C90.4502 51.394 90.0862 51.277 89.6615 51.277C89.4102 51.277 89.1502 51.342 88.8815 51.472C88.6129 51.5933 88.3659 51.8057 88.1405 52.109C87.9239 52.4123 87.7462 52.8153 87.6075 53.318C87.4689 53.8207 87.3995 54.449 87.3995 55.203ZM94.9162 60.091C94.8728 60.065 94.8252 60.013 94.7732 59.935C94.7212 59.857 94.6865 59.779 94.6692 59.701L96.9052 57.621C97.3645 57.1963 97.7675 56.8107 98.1142 56.464C98.4695 56.1173 98.7642 55.788 98.9982 55.476C99.2322 55.1553 99.4098 54.8347 99.5312 54.514C99.6525 54.1933 99.7132 53.838 99.7132 53.448C99.7132 53.136 99.6698 52.85 99.5832 52.59C99.5052 52.3213 99.3838 52.0917 99.2192 51.901C99.0632 51.7017 98.8595 51.5457 98.6082 51.433C98.3655 51.3203 98.0795 51.264 97.7502 51.264C97.5248 51.264 97.3082 51.2987 97.1002 51.368C96.8922 51.4287 96.7015 51.524 96.5282 51.654C96.3635 51.784 96.2292 51.9487 96.1252 52.148C96.0298 52.3387 95.9822 52.5683 95.9822 52.837C95.9822 53.0277 96.0168 53.1837 96.0862 53.305C96.1642 53.4263 96.2422 53.5303 96.3202 53.617C96.2422 53.7383 96.1035 53.8467 95.9042 53.942C95.7135 54.0287 95.5272 54.072 95.3452 54.072C95.2498 54.02 95.1588 53.9203 95.0722 53.773C94.9855 53.617 94.9422 53.409 94.9422 53.149C94.9422 52.837 95.0202 52.5337 95.1762 52.239C95.3408 51.9357 95.5618 51.6713 95.8392 51.446C96.1252 51.2207 96.4632 51.0387 96.8532 50.9C97.2432 50.7613 97.6678 50.692 98.1272 50.692C98.5952 50.692 99.0025 50.757 99.3492 50.887C99.6958 51.017 99.9775 51.1947 100.194 51.42C100.419 51.6367 100.584 51.8923 100.688 52.187C100.801 52.473 100.857 52.772 100.857 53.084C100.857 53.5 100.796 53.8857 100.675 54.241C100.554 54.5963 100.354 54.9647 100.077 55.346C99.7998 55.7187 99.4358 56.126 98.9852 56.568C98.5432 57.01 97.9972 57.517 97.3472 58.089L95.9822 59.298H101.117C101.1 59.5233 101.03 59.714 100.909 59.87C100.788 60.0173 100.653 60.091 100.506 60.091H94.9162ZM105.844 59.623C106.148 59.623 106.429 59.571 106.689 59.467C106.949 59.363 107.17 59.2113 107.352 59.012C107.543 58.8127 107.69 58.5657 107.794 58.271C107.898 57.9763 107.95 57.634 107.95 57.244C107.95 56.906 107.907 56.5897 107.82 56.295C107.734 56.0003 107.595 55.7447 107.404 55.528C107.214 55.3113 106.967 55.1423 106.663 55.021C106.36 54.891 105.996 54.826 105.571 54.826C105.32 54.826 105.082 54.852 104.856 54.904C104.64 54.9473 104.436 55.008 104.245 55.086C104.063 55.164 103.899 55.2507 103.751 55.346C103.604 55.4413 103.474 55.5323 103.361 55.619C103.301 55.593 103.24 55.5497 103.179 55.489C103.127 55.4197 103.093 55.3633 103.075 55.32L103.595 51.277C103.743 51.147 103.938 51.0387 104.18 50.952C104.432 50.8653 104.748 50.822 105.129 50.822H108.73C108.713 51.0473 108.644 51.238 108.522 51.394C108.41 51.55 108.254 51.628 108.054 51.628H104.297L103.946 54.514C104.224 54.3667 104.536 54.2453 104.882 54.15C105.238 54.046 105.623 53.994 106.039 53.994C106.559 53.994 107.006 54.072 107.378 54.228C107.76 54.384 108.067 54.592 108.301 54.852C108.544 55.112 108.722 55.4153 108.834 55.762C108.947 56.1 109.003 56.4553 109.003 56.828C109.003 57.2613 108.925 57.6817 108.769 58.089C108.622 58.4963 108.397 58.8603 108.093 59.181C107.799 59.493 107.426 59.7443 106.975 59.935C106.525 60.1257 106.005 60.221 105.415 60.221C104.982 60.221 104.592 60.1647 104.245 60.052C103.907 59.948 103.617 59.8007 103.374 59.61C103.132 59.4107 102.945 59.181 102.815 58.921C102.685 58.661 102.62 58.375 102.62 58.063C102.62 57.9243 102.638 57.816 102.672 57.738C102.768 57.6427 102.906 57.5603 103.088 57.491C103.279 57.4217 103.457 57.3827 103.621 57.374C103.613 57.4173 103.608 57.4563 103.608 57.491C103.608 57.5257 103.608 57.5603 103.608 57.595C103.608 57.881 103.656 58.1497 103.751 58.401C103.855 58.6437 103.998 58.856 104.18 59.038C104.371 59.22 104.605 59.363 104.882 59.467C105.16 59.571 105.48 59.623 105.844 59.623Z" fill="#06032D"/>
</svg>
