<svg width="147" height="72" viewBox="0 0 147 72" fill="none" xmlns="http://www.w3.org/2000/svg">
<path d="M9.395 39.255C10.205 39.795 11.135 40.23 12.185 40.56C13.235 40.86 14.42 41.01 15.74 41.01C17.54 41.01 18.98 40.695 20.06 40.065C21.17 39.435 21.995 38.49 22.535 37.23C23.105 35.97 23.48 34.44 23.66 32.64C23.84 30.84 23.93 28.785 23.93 26.475V10.05H25.46V26.295C25.46 28.725 25.355 30.93 25.145 32.91C24.935 34.89 24.5 36.6 23.84 38.04C23.21 39.48 22.235 40.59 20.915 41.37C19.625 42.12 17.9 42.495 15.74 42.495C14.36 42.495 13.1 42.33 11.96 42C10.82 41.67 9.77 41.175 8.81 40.515L9.395 39.255ZM33.6774 42V10.05H35.2524V42H33.6774ZM41.9377 10.05L54.8077 40.065L67.6327 10.05H69.2977L55.5727 42H54.0427L40.3177 10.05H41.9377ZM74.3708 42V10.05H75.9458V42H74.3708ZM84.5661 42V10.05H86.1411V30.165L105.671 10.05H107.606L94.1511 24.045L108.236 42H106.391L93.0711 25.035L86.1411 32.1V42H84.5661ZM122.949 10.05H124.299L138.024 42H136.359L131.634 30.975H115.614L110.889 42H109.179L122.949 10.05ZM131.139 29.625L123.624 12.03L116.064 29.625H131.139Z" fill="#00061B"/>
<path d="M38.793 59.024C38.8797 58.894 39.0227 58.7727 39.222 58.66C39.4213 58.5473 39.6163 58.4867 39.807 58.478C39.833 58.7207 39.9023 58.9677 40.015 59.219C40.1277 59.4617 40.288 59.6827 40.496 59.882C40.7127 60.0727 40.977 60.233 41.289 60.363C41.601 60.4843 41.9737 60.545 42.407 60.545C43.0397 60.545 43.5423 60.3847 43.915 60.064C44.2877 59.7347 44.474 59.3057 44.474 58.777C44.474 58.2743 44.344 57.8583 44.084 57.529C43.824 57.1997 43.3517 56.9483 42.667 56.775L41.445 56.463C41.133 56.385 40.8383 56.294 40.561 56.19C40.2837 56.086 40.041 55.9517 39.833 55.787C39.625 55.6137 39.4603 55.4057 39.339 55.163C39.2263 54.9117 39.17 54.6083 39.17 54.253C39.17 53.8977 39.2567 53.5553 39.43 53.226C39.6033 52.8967 39.8417 52.6063 40.145 52.355C40.457 52.095 40.8167 51.887 41.224 51.731C41.64 51.575 42.0863 51.497 42.563 51.497C43.0397 51.497 43.447 51.5577 43.785 51.679C44.123 51.8003 44.396 51.9477 44.604 52.121C44.812 52.2943 44.9637 52.485 45.059 52.693C45.163 52.8923 45.2237 53.07 45.241 53.226C45.1803 53.3473 45.0677 53.46 44.903 53.564C44.7383 53.6593 44.5477 53.72 44.331 53.746C44.2963 53.5553 44.2313 53.369 44.136 53.187C44.0407 52.9963 43.902 52.8273 43.72 52.68C43.5467 52.524 43.33 52.3983 43.07 52.303C42.81 52.2077 42.5023 52.16 42.147 52.16C41.5577 52.16 41.0853 52.316 40.73 52.628C40.3747 52.9313 40.197 53.3343 40.197 53.837C40.197 54.123 40.2403 54.3613 40.327 54.552C40.4137 54.734 40.535 54.89 40.691 55.02C40.847 55.1413 41.029 55.241 41.237 55.319C41.4537 55.397 41.6877 55.4663 41.939 55.527L43.083 55.813C43.5597 55.9343 43.954 56.0817 44.266 56.255C44.5867 56.4283 44.838 56.619 45.02 56.827C45.202 57.035 45.3277 57.2647 45.397 57.516C45.475 57.7587 45.514 58.01 45.514 58.27C45.514 58.66 45.4317 59.0327 45.267 59.388C45.1023 59.7433 44.864 60.0597 44.552 60.337C44.24 60.6057 43.863 60.8223 43.421 60.987C42.9877 61.143 42.498 61.221 41.952 61.221C41.4233 61.221 40.964 61.1517 40.574 61.013C40.184 60.8743 39.859 60.701 39.599 60.493C39.339 60.2763 39.1397 60.038 39.001 59.778C38.871 59.518 38.8017 59.2667 38.793 59.024ZM48.8516 52.173C48.7736 52.3117 48.6523 52.459 48.4876 52.615C48.323 52.7623 48.1756 52.8663 48.0456 52.927C47.9156 52.8663 47.7683 52.7623 47.6036 52.615C47.439 52.459 47.3133 52.3117 47.2266 52.173C47.3133 52.0257 47.439 51.874 47.6036 51.718C47.7683 51.562 47.9156 51.4493 48.0456 51.38C48.1756 51.4493 48.323 51.562 48.4876 51.718C48.661 51.874 48.7823 52.0257 48.8516 52.173ZM47.4996 54.435C47.647 54.357 47.8073 54.3007 47.9806 54.266C48.1626 54.2313 48.3446 54.214 48.5266 54.214V60.896C48.4053 60.9653 48.245 61.013 48.0456 61.039C47.855 61.0737 47.673 61.091 47.4996 61.091V54.435ZM55.7752 56.944C55.7752 56.2073 55.6235 55.67 55.3202 55.332C55.0168 54.9853 54.5878 54.812 54.0332 54.812C53.8338 54.812 53.6345 54.851 53.4352 54.929C53.2445 54.9983 53.0582 55.0937 52.8762 55.215C52.7028 55.3363 52.5382 55.4793 52.3822 55.644C52.2262 55.8 52.0875 55.9647 51.9662 56.138V60.896C51.8448 60.9653 51.6845 61.013 51.4852 61.039C51.2945 61.0737 51.1125 61.091 50.9392 61.091V54.435C51.2252 54.2877 51.5458 54.214 51.9012 54.214V55.501C52.0138 55.3537 52.1568 55.1977 52.3302 55.033C52.5122 54.8597 52.7115 54.7037 52.9282 54.565C53.1535 54.4263 53.3962 54.3137 53.6562 54.227C53.9248 54.1317 54.2108 54.084 54.5142 54.084C55.2162 54.084 55.7708 54.2963 56.1782 54.721C56.5942 55.1457 56.8022 55.7523 56.8022 56.541V60.896C56.6808 60.9653 56.5205 61.013 56.3212 61.039C56.1305 61.0737 55.9485 61.091 55.7752 61.091V56.944ZM64.4437 55.618C64.3917 55.7133 64.2877 55.813 64.1317 55.917C63.9844 56.021 63.7981 56.086 63.5727 56.112C63.5467 55.9647 63.4947 55.8087 63.4167 55.644C63.3474 55.4707 63.2434 55.3147 63.1047 55.176C62.9661 55.0287 62.7927 54.9117 62.5847 54.825C62.3767 54.7297 62.1254 54.682 61.8307 54.682C61.5881 54.682 61.3411 54.7297 61.0897 54.825C60.8471 54.9203 60.6261 55.0763 60.4267 55.293C60.2274 55.5097 60.0627 55.787 59.9327 56.125C59.8114 56.463 59.7507 56.8747 59.7507 57.36C59.7507 57.88 59.8201 58.335 59.9587 58.725C60.0974 59.1063 60.2837 59.427 60.5177 59.687C60.7517 59.9383 61.0204 60.129 61.3237 60.259C61.6357 60.3803 61.9607 60.441 62.2987 60.441C62.7407 60.441 63.1134 60.376 63.4167 60.246C63.7287 60.1073 63.9931 59.9123 64.2097 59.661C64.2617 59.6697 64.3137 59.7 64.3657 59.752C64.4177 59.804 64.4524 59.8517 64.4697 59.895C64.4004 60.0163 64.2921 60.155 64.1447 60.311C64.0061 60.4583 63.8284 60.597 63.6117 60.727C63.3951 60.857 63.1437 60.9653 62.8577 61.052C62.5717 61.1473 62.2467 61.195 61.8827 61.195C61.4494 61.195 61.0377 61.1213 60.6477 60.974C60.2664 60.8267 59.9284 60.6057 59.6337 60.311C59.3477 60.0163 59.1181 59.6567 58.9447 59.232C58.7801 58.8073 58.6977 58.3133 58.6977 57.75C58.6977 57.256 58.7887 56.7923 58.9707 56.359C59.1527 55.917 59.3997 55.5313 59.7117 55.202C60.0324 54.864 60.4094 54.5997 60.8427 54.409C61.2761 54.2097 61.7441 54.11 62.2467 54.11C62.6627 54.11 63.0094 54.1707 63.2867 54.292C63.5641 54.4047 63.7851 54.5433 63.9497 54.708C64.1231 54.864 64.2487 55.0287 64.3267 55.202C64.4047 55.3753 64.4437 55.514 64.4437 55.618ZM66.7075 57.646C66.7335 58.114 66.8158 58.5257 66.9545 58.881C67.1018 59.2277 67.2881 59.518 67.5135 59.752C67.7388 59.986 67.9988 60.1637 68.2935 60.285C68.5968 60.3977 68.9175 60.454 69.2555 60.454C69.6801 60.454 70.0441 60.3977 70.3475 60.285C70.6595 60.1723 70.9411 59.9947 71.1925 59.752C71.3138 59.778 71.3961 59.8603 71.4395 59.999C71.3788 60.0943 71.2791 60.2113 71.1405 60.35C71.0105 60.4887 70.8328 60.623 70.6075 60.753C70.3908 60.883 70.1265 60.9913 69.8145 61.078C69.5111 61.1733 69.1558 61.221 68.7485 61.221C68.3151 61.221 67.9121 61.143 67.5395 60.987C67.1668 60.831 66.8418 60.6057 66.5645 60.311C66.2871 60.0163 66.0661 59.6523 65.9015 59.219C65.7455 58.7857 65.6675 58.296 65.6675 57.75C65.6675 57.2473 65.7541 56.775 65.9275 56.333C66.1008 55.8823 66.3348 55.4923 66.6295 55.163C66.9328 54.8337 67.2838 54.5737 67.6825 54.383C68.0898 54.1837 68.5231 54.084 68.9825 54.084C69.4765 54.084 69.8838 54.1663 70.2045 54.331C70.5251 54.4957 70.7765 54.708 70.9585 54.968C71.1491 55.228 71.2791 55.514 71.3485 55.826C71.4265 56.138 71.4655 56.4413 71.4655 56.736C71.3961 56.84 71.3008 56.931 71.1795 57.009C71.0668 57.087 70.9411 57.1477 70.8025 57.191L66.7075 57.646ZM68.6445 54.669C68.3758 54.669 68.1245 54.7167 67.8905 54.812C67.6565 54.9073 67.4528 55.0547 67.2795 55.254C67.1061 55.4533 66.9631 55.709 66.8505 56.021C66.7465 56.333 66.6901 56.71 66.6815 57.152L70.3475 56.775C70.3561 56.7317 70.3605 56.6883 70.3605 56.645C70.3605 56.6017 70.3605 56.5627 70.3605 56.528C70.3605 56.2593 70.3258 56.0123 70.2565 55.787C70.1871 55.5617 70.0788 55.3667 69.9315 55.202C69.7928 55.0373 69.6151 54.9073 69.3985 54.812C69.1905 54.7167 68.9391 54.669 68.6445 54.669ZM76.5265 61.091C76.4832 61.065 76.4355 61.013 76.3835 60.935C76.3315 60.857 76.2968 60.779 76.2795 60.701L78.5155 58.621C78.9748 58.1963 79.3778 57.8107 79.7245 57.464C80.0798 57.1173 80.3745 56.788 80.6085 56.476C80.8425 56.1553 81.0202 55.8347 81.1415 55.514C81.2628 55.1933 81.3235 54.838 81.3235 54.448C81.3235 54.136 81.2802 53.85 81.1935 53.59C81.1155 53.3213 80.9942 53.0917 80.8295 52.901C80.6735 52.7017 80.4698 52.5457 80.2185 52.433C79.9758 52.3203 79.6898 52.264 79.3605 52.264C79.1352 52.264 78.9185 52.2987 78.7105 52.368C78.5025 52.4287 78.3118 52.524 78.1385 52.654C77.9738 52.784 77.8395 52.9487 77.7355 53.148C77.6402 53.3387 77.5925 53.5683 77.5925 53.837C77.5925 54.0277 77.6272 54.1837 77.6965 54.305C77.7745 54.4263 77.8525 54.5303 77.9305 54.617C77.8525 54.7383 77.7138 54.8467 77.5145 54.942C77.3238 55.0287 77.1375 55.072 76.9555 55.072C76.8602 55.02 76.7692 54.9203 76.6825 54.773C76.5958 54.617 76.5525 54.409 76.5525 54.149C76.5525 53.837 76.6305 53.5337 76.7865 53.239C76.9512 52.9357 77.1722 52.6713 77.4495 52.446C77.7355 52.2207 78.0735 52.0387 78.4635 51.9C78.8535 51.7613 79.2782 51.692 79.7375 51.692C80.2055 51.692 80.6128 51.757 80.9595 51.887C81.3062 52.017 81.5878 52.1947 81.8045 52.42C82.0298 52.6367 82.1945 52.8923 82.2985 53.187C82.4112 53.473 82.4675 53.772 82.4675 54.084C82.4675 54.5 82.4068 54.8857 82.2855 55.241C82.1642 55.5963 81.9648 55.9647 81.6875 56.346C81.4102 56.7187 81.0462 57.126 80.5955 57.568C80.1535 58.01 79.6075 58.517 78.9575 59.089L77.5925 60.298H82.7275C82.7102 60.5233 82.6408 60.714 82.5195 60.87C82.3982 61.0173 82.2638 61.091 82.1165 61.091H76.5265ZM84.2945 56.762C84.2945 55.9907 84.3899 55.293 84.5805 54.669C84.7712 54.045 85.0312 53.512 85.3605 53.07C85.6985 52.628 86.0929 52.29 86.5435 52.056C87.0029 51.8133 87.4969 51.692 88.0255 51.692C88.5975 51.692 89.0829 51.8133 89.4815 52.056C89.8889 52.29 90.2182 52.6063 90.4695 53.005C90.7295 53.4037 90.9159 53.8673 91.0285 54.396C91.1499 54.9247 91.2105 55.4793 91.2105 56.06C91.2105 56.6753 91.1455 57.2907 91.0155 57.906C90.8942 58.5213 90.6905 59.076 90.4045 59.57C90.1185 60.0553 89.7415 60.454 89.2735 60.766C88.8055 61.0693 88.2292 61.221 87.5445 61.221C87.0939 61.221 86.6692 61.13 86.2705 60.948C85.8805 60.7573 85.5382 60.4757 85.2435 60.103C84.9489 59.7303 84.7149 59.2667 84.5415 58.712C84.3769 58.1487 84.2945 57.4987 84.2945 56.762ZM85.3995 56.203C85.3995 56.9223 85.4602 57.5593 85.5815 58.114C85.7115 58.66 85.8892 59.1193 86.1145 59.492C86.3399 59.8647 86.6042 60.1463 86.9075 60.337C87.2195 60.5277 87.5575 60.623 87.9215 60.623C88.6322 60.623 89.1739 60.2937 89.5465 59.635C89.9192 58.9763 90.1055 57.971 90.1055 56.619C90.1055 56.0383 90.0579 55.4837 89.9625 54.955C89.8672 54.4263 89.7199 53.967 89.5205 53.577C89.3212 53.1783 89.0655 52.862 88.7535 52.628C88.4502 52.394 88.0862 52.277 87.6615 52.277C87.4102 52.277 87.1502 52.342 86.8815 52.472C86.6129 52.5933 86.3659 52.8057 86.1405 53.109C85.9239 53.4123 85.7462 53.8153 85.6075 54.318C85.4689 54.8207 85.3995 55.449 85.3995 56.203ZM92.9162 61.091C92.8728 61.065 92.8252 61.013 92.7732 60.935C92.7212 60.857 92.6865 60.779 92.6692 60.701L94.9052 58.621C95.3645 58.1963 95.7675 57.8107 96.1142 57.464C96.4695 57.1173 96.7642 56.788 96.9982 56.476C97.2322 56.1553 97.4098 55.8347 97.5312 55.514C97.6525 55.1933 97.7132 54.838 97.7132 54.448C97.7132 54.136 97.6698 53.85 97.5832 53.59C97.5052 53.3213 97.3838 53.0917 97.2192 52.901C97.0632 52.7017 96.8595 52.5457 96.6082 52.433C96.3655 52.3203 96.0795 52.264 95.7502 52.264C95.5248 52.264 95.3082 52.2987 95.1002 52.368C94.8922 52.4287 94.7015 52.524 94.5282 52.654C94.3635 52.784 94.2292 52.9487 94.1252 53.148C94.0298 53.3387 93.9822 53.5683 93.9822 53.837C93.9822 54.0277 94.0168 54.1837 94.0862 54.305C94.1642 54.4263 94.2422 54.5303 94.3202 54.617C94.2422 54.7383 94.1035 54.8467 93.9042 54.942C93.7135 55.0287 93.5272 55.072 93.3452 55.072C93.2498 55.02 93.1588 54.9203 93.0722 54.773C92.9855 54.617 92.9422 54.409 92.9422 54.149C92.9422 53.837 93.0202 53.5337 93.1762 53.239C93.3408 52.9357 93.5618 52.6713 93.8392 52.446C94.1252 52.2207 94.4632 52.0387 94.8532 51.9C95.2432 51.7613 95.6678 51.692 96.1272 51.692C96.5952 51.692 97.0025 51.757 97.3492 51.887C97.6958 52.017 97.9775 52.1947 98.1942 52.42C98.4195 52.6367 98.5842 52.8923 98.6882 53.187C98.8008 53.473 98.8572 53.772 98.8572 54.084C98.8572 54.5 98.7965 54.8857 98.6752 55.241C98.5538 55.5963 98.3545 55.9647 98.0772 56.346C97.7998 56.7187 97.4358 57.126 96.9852 57.568C96.5432 58.01 95.9972 58.517 95.3472 59.089L93.9822 60.298H99.1172C99.0998 60.5233 99.0305 60.714 98.9092 60.87C98.7878 61.0173 98.6535 61.091 98.5062 61.091H92.9162ZM103.844 60.623C104.148 60.623 104.429 60.571 104.689 60.467C104.949 60.363 105.17 60.2113 105.352 60.012C105.543 59.8127 105.69 59.5657 105.794 59.271C105.898 58.9763 105.95 58.634 105.95 58.244C105.95 57.906 105.907 57.5897 105.82 57.295C105.734 57.0003 105.595 56.7447 105.404 56.528C105.214 56.3113 104.967 56.1423 104.663 56.021C104.36 55.891 103.996 55.826 103.571 55.826C103.32 55.826 103.082 55.852 102.856 55.904C102.64 55.9473 102.436 56.008 102.245 56.086C102.063 56.164 101.899 56.2507 101.751 56.346C101.604 56.4413 101.474 56.5323 101.361 56.619C101.301 56.593 101.24 56.5497 101.179 56.489C101.127 56.4197 101.093 56.3633 101.075 56.32L101.595 52.277C101.743 52.147 101.938 52.0387 102.18 51.952C102.432 51.8653 102.748 51.822 103.129 51.822H106.73C106.713 52.0473 106.644 52.238 106.522 52.394C106.41 52.55 106.254 52.628 106.054 52.628H102.297L101.946 55.514C102.224 55.3667 102.536 55.2453 102.882 55.15C103.238 55.046 103.623 54.994 104.039 54.994C104.559 54.994 105.006 55.072 105.378 55.228C105.76 55.384 106.067 55.592 106.301 55.852C106.544 56.112 106.722 56.4153 106.834 56.762C106.947 57.1 107.003 57.4553 107.003 57.828C107.003 58.2613 106.925 58.6817 106.769 59.089C106.622 59.4963 106.397 59.8603 106.093 60.181C105.799 60.493 105.426 60.7443 104.975 60.935C104.525 61.1257 104.005 61.221 103.415 61.221C102.982 61.221 102.592 61.1647 102.245 61.052C101.907 60.948 101.617 60.8007 101.374 60.61C101.132 60.4107 100.945 60.181 100.815 59.921C100.685 59.661 100.62 59.375 100.62 59.063C100.62 58.9243 100.638 58.816 100.672 58.738C100.768 58.6427 100.906 58.5603 101.088 58.491C101.279 58.4217 101.457 58.3827 101.621 58.374C101.613 58.4173 101.608 58.4563 101.608 58.491C101.608 58.5257 101.608 58.5603 101.608 58.595C101.608 58.881 101.656 59.1497 101.751 59.401C101.855 59.6437 101.998 59.856 102.18 60.038C102.371 60.22 102.605 60.363 102.882 60.467C103.16 60.571 103.48 60.623 103.844 60.623Z" fill="#00061B"/>
</svg>
